<svg xmlns="http://www.w3.org/2000/svg" width="300" height="80" viewBox="0 0 300 80">
  <rect x="8" y="12" width="56" height="56" rx="15" fill="#212618" stroke="rgba(232,230,210,.14)" stroke-width="1.2"></rect>
  <g transform="translate(36,40) scale(.86)">
    <circle cx="0" cy="0" r="15" fill="none" stroke="#9FB052" stroke-width="2.4"></circle>
    <circle cx="0" cy="0" r="3.6" fill="#D8BE6A"></circle>
    <circle cx="0" cy="-15" r="2.4" fill="#D8BE6A"></circle>
  </g>
  <path d="M103.800 29.680L100.160 27.880L96.160 27.840L92.480 29.480L89.640 32.640L88.120 36.760L88.120 41.240L89.640 45.360L92.480 48.520L96.160 50.160L100.160 50.120L103.800 48.320L105.560 50.880L100.800 53.160L95.600 53.240L90.760 51.120L87.080 47.120L85.040 41.840L85.040 36.160L87.080 30.880L90.760 26.880L95.600 24.760L100.800 24.840L105.560 27.120ZM124 32.520C126.760 32.520 129.120 33.560 131.080 35.600C133.040 37.640 134 40.120 134 43C134 45.880 133.040 48.360 131.080 50.400C129.120 52.440 126.760 53.480 124 53.480C121.240 53.480 118.880 52.440 116.920 50.400C114.960 48.360 114 45.880 114 43C114 40.120 114.960 37.640 116.920 35.600C118.880 33.560 121.240 32.520 124 32.520ZM124 35.640C122.120 35.640 120.480 36.360 119.120 37.800C117.800 39.240 117.120 40.960 117.120 43C117.120 45.040 117.800 46.760 119.120 48.200C120.480 49.640 122.120 50.360 124 50.360C125.880 50.360 127.520 49.640 128.880 48.200C130.200 46.760 130.880 45.040 130.880 43C130.880 40.960 130.200 39.240 128.880 37.800C127.520 36.360 125.880 35.640 124 35.640ZM138.240 33L141.360 33L141.360 53L138.240 53ZM153.040 43L156.160 43L156.160 53L153.040 53ZM153.040 43L152.600 40.360L151.320 38.120L149.440 36.640L147.200 36.120L144.960 36.640L143.080 38.120L141.800 40.360L141.360 43L138.240 43L138.920 39.160L140.880 35.920L143.760 33.760L147.200 33L150.640 33.760L153.520 35.920L155.480 39.160L156.160 43ZM161.440 33L164.560 33L164.560 53L161.440 53ZM176.240 43L179.360 43L179.360 53L176.240 53ZM176.240 43L175.800 40.360L174.520 38.120L172.640 36.640L170.400 36.120L168.160 36.640L166.280 38.120L165.000 40.360L164.560 43L161.440 43L162.120 39.160L164.080 35.920L166.960 33.760L170.400 33L173.840 33.760L176.720 35.920L178.680 39.160L179.360 43ZM200.200 41.960L199.320 39.280L197.560 37.120L195.120 35.880L192.480 35.720L189.920 36.640L187.920 38.560L186.760 41.120L186.600 44L187.440 46.680L189.240 48.840L191.640 50.120L194.320 50.280L196.840 49.360L198.400 52.080L194.720 53.400L190.840 53.120L187.320 51.320L184.760 48.280L183.480 44.400L183.720 40.320L185.440 36.640L188.360 33.960L192.040 32.600L195.920 32.840L199.440 34.640L202.000 37.680L203.320 41.560ZM183.600 41.440L203.400 41.440L203.400 44.560L183.600 44.560ZM220.240 37.200L217.760 35.880L214.960 35.720L212.360 36.760L210.360 38.800L209.280 41.520L209.280 44.480L210.360 47.200L212.360 49.240L214.960 50.280L217.760 50.120L220.240 48.800L222.160 51.240L218.560 53.120L214.520 53.360L210.720 51.920L207.800 49L206.200 45.120L206.200 40.880L207.800 37L210.720 34.080L214.520 32.640L218.560 32.880L222.160 34.760ZM231.440 28.200L234.560 28.200L234.560 50.200L231.440 50.200ZM227.800 33L239.800 33L239.800 36.120L227.800 36.120ZM234.560 50.200L234.760 50.080L235.280 49.960L236.080 49.880L237.000 49.880L237.880 49.920L239.440 52.640L237.320 53L235.120 52.880L233.200 52.280L231.880 51.320L231.440 50.200Z" fill="#E8E6D2"></path>
</svg>